<?xml version="1.0" standalone="no"?>
<!DOCTYPE svg PUBLIC "-//W3C//DTD SVG 20010904//EN"
 "http://www.w3.org/TR/2001/REC-SVG-20010904/DTD/svg10.dtd">
<svg version="1.0" xmlns="http://www.w3.org/2000/svg"
 width="512.000000pt" height="512.000000pt" viewBox="0 0 512.000000 512.000000"
 preserveAspectRatio="xMidYMid meet">
<metadata>
Created by potrace 1.14, written by Peter Selinger 2001-2017
</metadata>
<g transform="translate(0.000000,512.000000) scale(0.100000,-0.100000)"
fill="#000000" stroke="none">
<path d="M573 4567 c4 -10 3 -16 -2 -12 -5 3 -12 2 -14 -2 -8 -12 16 -38 36
-40 38 -2 42 -4 23 -14 -14 -9 -20 -8 -27 2 -7 11 -9 9 -9 -6 0 -12 -3 -16 -8
-8 -4 6 -7 -51 -7 -127 0 -76 3 -136 6 -134 4 2 6 22 5 44 -1 22 2 40 6 40 14
0 6 -82 -10 -110 -13 -23 -13 -24 2 -6 16 19 16 19 16 -7 0 -21 -4 -25 -17
-21 -16 5 -16 4 -2 -5 21 -14 27 -147 7 -135 -7 4 -5 -2 5 -13 9 -11 14 -22
11 -25 -3 -4 -5 -46 -4 -95 3 -243 3 -314 -2 -319 -3 -3 -2 -21 2 -40 4 -19 4
-36 0 -39 -4 -3 -4 -20 0 -39 4 -19 6 -37 3 -40 -4 -4 -6 -362 -3 -373 4 -11
1 -125 -2 -129 -3 -2 -2 -24 2 -49 4 -25 3 -45 -1 -45 -5 0 -6 -7 -2 -17 9
-22 8 -77 -1 -91 -4 -7 -4 -12 1 -12 4 0 8 -113 7 -251 0 -137 3 -252 8 -255
5 -3 5 -10 2 -16 -12 -20 -13 -88 0 -81 6 4 5 0 -2 -9 -11 -14 -10 -17 5 -21
17 -4 17 -5 0 -6 -10 0 -15 -6 -12 -11 4 -6 12 -8 18 -4 7 3 5 0 -4 -8 -11 -9
-15 -31 -14 -80 1 -37 5 -71 10 -75 4 -4 5 -3 1 4 -3 6 -2 14 3 17 5 4 8 -2 6
-11 -1 -10 1 -25 6 -34 5 -10 4 -16 -6 -16 -7 0 -11 6 -8 14 3 7 1 13 -4 13
-11 0 -10 -56 1 -67 4 -5 6 -2 4 6 -2 7 4 16 12 18 12 4 12 3 2 -5 -15 -10
-15 -18 -1 -43 4 -9 5 -20 1 -23 -4 -4 -7 -15 -7 -24 0 -9 -6 -16 -14 -14 -12
3 -12 0 -1 -12 15 -19 24 -21 14 -4 -4 7 -3 8 5 4 15 -10 3 -29 -14 -22 -14 5
-14 -18 0 -31 4 -4 5 -2 1 5 -8 13 6 17 18 5 4 -4 -3 -15 -15 -24 -16 -12 -19
-18 -9 -24 9 -5 11 -4 6 3 -4 7 -3 12 2 12 17 0 21 -13 10 -33 -8 -16 -8 -22
0 -25 9 -3 9 -9 2 -23 -8 -14 -7 -19 2 -20 7 0 4 -4 -7 -9 -13 -6 -15 -9 -5
-9 11 -1 15 -13 14 -49 0 -26 -4 -53 -8 -60 -4 -7 -4 -12 1 -12 4 0 8 -75 8
-166 0 -136 3 -168 15 -176 12 -8 12 -9 -2 -4 -21 6 -23 -5 -6 -22 8 -8 9 -12
1 -12 -13 0 -5 -42 11 -52 7 -5 5 -8 -4 -8 -9 0 -16 -8 -16 -19 0 -13 6 -17
21 -14 11 2 14 1 7 -3 -6 -3 -9 -11 -6 -16 4 -7 2 -8 -4 -4 -7 4 -12 1 -12 -9
0 -9 4 -13 10 -10 5 3 10 1 10 -4 0 -6 -5 -11 -10 -11 -6 0 -8 -11 -6 -25 3
-15 0 -25 -7 -25 -6 0 -3 -6 7 -13 23 -17 28 -87 7 -87 -11 0 -10 -4 5 -16 19
-15 19 -16 0 -9 -19 6 -19 5 -3 -13 16 -17 16 -21 2 -32 -9 -7 -15 -8 -15 -2
0 6 6 12 12 14 7 3 -4 5 -24 6 -20 1 -41 -5 -48 -13 -15 -18 -8 -51 9 -47 8 2
11 -3 8 -12 -4 -9 -2 -18 3 -21 5 -3 7 -11 4 -18 -4 -10 41 -13 211 -11 119 1
218 4 221 7 3 3 18 1 34 -3 16 -4 31 -6 33 -3 9 8 121 9 139 1 9 -5 19 -4 23
2 3 5 1 10 -5 10 -6 0 -8 5 -4 11 5 8 9 7 15 -4 7 -12 28 -16 90 -16 44 0 85
-4 91 -7 8 -5 9 -1 5 10 -6 14 -3 15 14 5 24 -12 53 -4 43 12 -4 8 -3 9 5 5 6
-4 9 -12 6 -17 -4 -5 -2 -9 4 -9 5 0 15 8 20 17 10 17 10 17 11 1 0 -10 7 -18
15 -18 9 0 12 6 9 18 -5 14 -4 15 5 2 8 -12 40 -15 175 -15 91 -1 163 1 161 3
-3 3 -36 5 -74 6 -38 1 -72 4 -75 6 -2 3 36 5 85 5 65 0 88 -3 85 -12 -5 -13
34 -9 43 5 8 11 152 12 145 1 -3 -5 0 -9 5 -9 6 0 11 4 11 8 0 4 9 8 20 9 11
1 20 -2 20 -7 0 -4 7 -11 16 -14 13 -5 14 -4 6 7 -9 11 -8 14 6 14 9 0 23 -5
31 -11 11 -8 13 -8 7 2 -11 19 12 14 24 -6 9 -13 10 -14 7 -1 -4 12 1 16 16
15 12 -1 21 -8 19 -15 -1 -7 2 -10 8 -6 6 3 8 10 6 14 -3 4 17 7 44 7 33 1 47
-3 43 -10 -4 -6 2 -4 12 4 17 14 18 13 12 -5 l-7 -20 16 20 c11 14 18 16 21 8
3 -7 9 -13 14 -13 6 0 8 4 5 8 -3 5 15 9 39 9 31 1 43 -3 38 -11 -3 -6 -1 -6
8 2 7 6 20 12 28 12 14 0 14 -1 1 -10 -12 -7 -10 -9 7 -7 12 0 20 4 17 8 -2 3
7 7 21 7 14 0 26 -7 28 -17 4 -14 5 -14 6 2 0 9 6 17 12 17 5 0 8 -4 4 -9 -3
-5 -1 -13 5 -16 6 -4 9 -1 8 6 -2 6 3 14 11 17 9 3 11 0 6 -8 -6 -10 -4 -11 6
-4 21 13 80 14 72 0 -3 -6 0 -6 8 1 7 7 20 13 28 13 14 0 14 -1 1 -10 -12 -7
-10 -9 7 -7 12 0 20 4 17 8 -2 3 7 7 21 7 15 0 22 -5 18 -12 -3 -6 0 -6 8 2
14 13 63 17 55 4 -3 -5 1 -9 9 -9 8 0 12 4 10 7 -3 4 7 8 20 8 22 0 24 -3 13
-17 -10 -12 -8 -12 8 2 21 18 119 23 108 5 -3 -4 0 -8 5 -8 6 0 11 5 11 10 0
6 12 10 26 10 17 0 23 -4 18 -12 -6 -10 -5 -10 7 -1 12 10 149 13 582 13 526
1 566 2 561 18 -5 15 -4 15 6 0 14 -23 31 -23 24 -1 -5 17 -5 17 9 0 14 -17
57 -20 73 -4 3 3 -5 4 -19 1 -14 -2 -28 -1 -30 3 -3 5 12 8 33 8 29 1 37 -3
33 -15 -3 -11 0 -10 10 3 9 11 13 25 10 33 -3 9 2 14 16 14 12 0 21 6 21 15 0
8 6 15 13 15 8 0 8 3 -2 9 -8 5 -11 16 -8 25 3 8 2 18 -4 22 -6 3 -3 11 8 20
10 7 13 14 7 14 -8 0 -12 32 -12 98 -1 53 -2 102 -3 107 -1 6 -1 13 -1 16 1 3
2 33 3 67 1 34 7 63 14 65 8 4 11 -29 11 -109 1 -73 -3 -111 -9 -107 -6 4 -7
1 -1 -8 13 -21 14 -70 2 -63 -7 5 -8 2 -2 -7 12 -20 12 -153 0 -161 -6 -4 0
-11 14 -17 14 -5 19 -10 11 -10 -8 -1 -12 -3 -9 -6 2 -3 16 1 31 8 l27 12 -3
276 c-1 186 -5 275 -12 272 -14 -5 -17 35 -3 43 6 4 8 2 4 -4 -3 -6 -2 -13 3
-16 5 -4 8 2 6 11 -1 10 -8 17 -14 16 -6 -2 -11 9 -11 25 1 26 1 26 15 8 8
-11 15 -15 15 -9 0 6 -7 16 -15 23 -20 16 -19 27 3 33 14 4 15 5 1 6 -13 1
-17 11 -17 44 -1 378 -5 547 -13 547 -5 0 -9 5 -9 11 0 5 4 8 8 5 13 -8 11 28
-2 36 -8 5 -7 8 2 8 6 0 12 5 12 11 0 6 -6 9 -13 6 -7 -3 -13 3 -13 14 0 11 4
15 11 9 12 -10 15 113 3 125 -4 4 -5 -9 -3 -29 2 -20 -1 -38 -5 -41 -4 -3 -7
16 -6 43 1 27 6 46 12 45 6 -1 11 4 11 12 0 7 -6 11 -13 8 -9 -3 -12 2 -9 18
3 12 0 28 -6 35 -7 9 -5 15 8 23 11 6 13 11 5 11 -7 0 -10 5 -7 10 4 6 11 7
17 4 7 -4 8 -2 4 5 -4 6 -11 9 -16 6 -13 -8 -18 18 -8 38 5 9 5 17 1 17 -7 0
-10 1871 -3 1985 1 22 1 45 0 50 -1 6 -3 26 -3 45 -1 22 -7 34 -14 33 -7 -2
-13 2 -13 8 0 6 -7 9 -15 6 -8 -4 -17 -1 -21 5 -4 7 -3 8 4 4 7 -4 12 -2 12 3
0 6 -9 11 -20 11 -11 0 -20 5 -20 11 0 5 6 7 13 3 6 -4 9 -3 5 1 -5 5 -20 10
-34 11 -19 2 -24 -1 -20 -12 5 -13 -15 -17 -96 -17 -10 0 -15 -4 -12 -8 3 -5
0 -9 -5 -9 -6 0 -11 4 -11 8 0 5 -18 8 -40 8 -47 0 -55 -13 -9 -14 17 0 33 -3
36 -5 2 -3 -33 -4 -79 -3 -62 1 -82 5 -80 15 1 7 -2 10 -8 6 -6 -3 -7 -11 -4
-17 4 -6 1 -8 -7 -6 -8 3 -13 11 -11 17 1 7 -2 10 -8 6 -6 -3 -8 -11 -4 -16 4
-7 -20 -9 -66 -6 -39 2 -73 1 -75 -2 -7 -12 -135 -4 -152 10 -9 8 -14 9 -10 2
9 -15 -21 -22 -51 -11 -16 6 -21 5 -16 -3 4 -7 1 -10 -7 -7 -8 3 -13 14 -11
24 3 18 3 18 -12 -1 -8 -11 -16 -16 -16 -12 0 4 -9 3 -19 -3 -16 -8 -22 -6
-30 7 -9 16 -10 16 -11 2 0 -14 -6 -16 -34 -9 -19 4 -40 4 -47 -1 -8 -5 -21
-2 -32 8 -15 14 -17 14 -12 2 8 -20 -26 -19 -51 2 -10 8 -15 9 -11 3 4 -7 -2
-14 -13 -17 -11 -3 -20 0 -20 5 0 6 -8 4 -17 -3 -14 -12 -16 -12 -8 0 6 10 4
12 -5 6 -23 -14 -94 -11 -108 5 -8 8 -11 9 -7 3 3 -7 0 -13 -7 -14 -64 -4 -74
-3 -86 16 -9 13 -12 15 -8 3 3 -10 -2 -18 -15 -21 -10 -3 -19 -1 -19 5 0 5 -6
6 -12 2 -18 -11 -48 -12 -48 -2 0 5 -8 4 -18 -1 -10 -5 -23 -6 -29 -3 -15 9
-97 7 -112 -2 -15 -10 -14 7 2 24 6 7 1 6 -13 -3 -27 -19 -44 -22 -35 -8 3 5
1 13 -5 16 -6 4 -9 1 -8 -6 2 -6 -3 -14 -11 -17 -8 -2 -11 0 -7 6 3 6 2 14 -4
17 -6 4 -9 1 -8 -7 2 -7 -4 -13 -12 -13 -8 0 -21 -4 -29 -9 -9 -6 -12 -5 -8 1
4 7 -9 10 -38 8 -27 -1 -45 2 -45 9 0 7 -36 11 -105 11 -68 0 -104 -3 -101
-10 2 -5 -9 -10 -24 -10 -17 -1 -26 4 -23 10 2 7 -3 12 -11 12 -8 0 -13 -4
-10 -9 3 -4 0 -8 -5 -8 -6 0 -11 4 -11 8 0 5 -7 9 -15 9 -8 0 -15 -4 -15 -9 0
-4 5 -8 12 -8 6 0 8 -3 4 -7 -4 -5 -13 -1 -19 7 -14 18 -37 24 -37 10 0 -5 5
-10 12 -10 6 0 8 -3 4 -7 -4 -5 -14 1 -22 11 -10 14 -14 16 -14 5 0 -8 -3 -10
-8 -4 -6 9 -46 13 -54 5 -10 -7 -37 -7 -32 1 3 5 -2 9 -11 9 -10 0 -13 -5 -9
-12 6 -10 4 -10 -7 -2 -19 15 -141 15 -132 0 3 -6 0 -5 -8 2 -7 6 -19 12 -27
12 -8 0 -10 -5 -6 -12 6 -10 5 -10 -7 -1 -10 8 -53 12 -125 12 -281 -2 -335 1
-328 14 5 7 0 6 -11 -3 -17 -14 -18 -13 -12 5 7 19 6 19 -7 3 -14 -20 -46 -24
-46 -7 0 5 4 8 9 4 5 -3 12 -2 15 3 2 4 -21 8 -52 8 -375 6 -439 9 -435 20 2
6 -2 11 -9 11 -7 1 -63 2 -125 3 -94 2 -113 5 -116 19 -4 14 -5 14 -6 -1 -1
-10 -9 -16 -21 -15 -11 1 -19 6 -16 12 2 7 -11 12 -35 12 -21 0 -39 -4 -39 -9
0 -5 5 -6 12 -2 7 5 8 3 3 -6 -6 -10 -11 -10 -20 3 -14 20 -50 24 -39 5 5 -8
0 -7 -11 2 -17 14 -18 13 -12 -3z m127 -5 c0 -5 -7 -9 -15 -9 -8 0 -15 4 -15
9 0 4 7 8 15 8 8 0 15 -4 15 -8z m285 -32 c3 -6 -1 -7 -9 -4 -18 7 -21 14 -7
14 6 0 13 -4 16 -10z m405 -24 c0 -3 -4 -8 -10 -11 -5 -3 -10 -1 -10 4 0 6 5
11 10 11 6 0 10 -2 10 -4z m1125 -44 c-3 -3 -11 0 -18 7 -9 10 -8 11 6 5 10
-3 15 -9 12 -12z m151 5 c4 -3 -17 -5 -47 -3 -30 2 -61 0 -70 -5 -10 -5 -16
-4 -16 4 0 13 120 17 133 4z m-2083 -62 c-3 -9 -8 -14 -10 -11 -3 3 -2 9 2 15
9 16 15 13 8 -4z m-2 -78 c-10 -9 -11 -8 -5 6 3 10 9 15 12 12 3 -3 0 -11 -7
-18z m36 -2329 c-3 -8 -6 -5 -6 6 -1 11 2 17 5 13 3 -3 4 -12 1 -19z m-3 -68
c-6 -6 -10 -3 -10 10 0 13 4 16 10 10 7 -7 7 -13 0 -20z m3991 -804 c-1 -62
-10 -66 -11 -5 0 27 2 49 6 49 3 0 6 -20 5 -44z m5 -165 c0 -6 -4 -12 -8 -15
-5 -3 -9 1 -9 9 0 8 4 15 9 15 4 0 8 -4 8 -9z m-3954 -136 c1 -8 -1 -17 -5
-19 -4 -3 -7 6 -7 19 0 25 8 25 12 0z m2468 -103 c3 -5 -1 -9 -9 -9 -8 0 -12
4 -9 9 3 4 7 8 9 8 2 0 6 -4 9 -8z m89 -15 c17 17 18 17 11 -2 -7 -18 -6 -18
9 -6 9 7 17 10 17 5 0 -5 5 -2 10 6 8 13 10 12 10 -3 0 -14 5 -16 28 -11 15 4
36 11 46 17 15 7 22 6 31 -7 7 -8 15 -13 18 -9 4 3 1 13 -6 22 -11 14 -10 14
6 2 16 -13 20 -13 29 0 8 11 9 11 4 -3 -3 -12 0 -18 10 -18 9 0 12 5 8 12 -4
6 -3 8 4 4 5 -3 12 -3 15 1 2 5 2 2 1 -4 -5 -19 14 -16 25 5 6 10 11 12 11 4
0 -9 5 -10 18 -3 13 7 23 6 30 -1 9 -9 12 -9 12 2 0 10 4 8 14 -5 8 -11 19
-16 30 -12 9 4 16 1 16 -6 0 -9 2 -9 8 0 4 7 18 11 29 9 15 -3 20 -1 17 9 -8
21 29 13 44 -10 10 -15 12 -16 8 -3 -6 21 10 34 17 13 6 -14 36 -13 60 2 6 4
29 8 50 9 27 0 37 -4 38 -15 0 -12 3 -10 9 4 6 13 9 15 9 5 1 -9 4 -11 9 -5
10 14 32 17 32 5 0 -5 5 -10 11 -10 5 0 8 4 5 9 -8 12 47 8 56 -4 5 -6 8 -4 8
5 0 13 1 13 10 0 5 -8 10 -10 10 -5 0 6 11 12 26 13 17 1 23 -2 18 -10 -5 -7
-3 -8 7 -2 22 13 51 16 43 3 -4 -7 1 -7 16 1 18 10 24 9 31 -1 6 -9 9 -10 9
-2 0 14 39 14 59 -1 10 -8 13 -8 9 0 -5 7 18 10 67 10 50 0 72 -3 68 -10 -3
-6 0 -5 8 2 24 22 46 14 51 -18 3 -16 1 -35 -4 -42 -5 -9 -8 -7 -9 7 0 11 -3
14 -6 8 -3 -10 -10 -10 -24 -2 -11 5 -17 15 -13 20 4 6 -4 5 -17 -2 -28 -15
-29 -15 -41 3 -8 10 -9 10 -5 -2 2 -8 10 -14 16 -13 6 2 11 -2 11 -7 0 -12
-10 -13 -30 0 -9 5 -19 5 -27 -2 -9 -7 -17 -7 -28 2 -8 7 -15 8 -15 3 0 -10
-54 -8 -71 2 -5 4 -9 2 -9 -3 0 -5 -7 -9 -15 -9 -12 0 -12 3 -2 16 10 12 9 13
-1 7 -7 -4 -21 -2 -30 5 -14 11 -15 11 -4 -1 16 -18 15 -27 -3 -27 -8 0 -11 5
-8 11 4 6 0 5 -9 -1 -20 -17 -31 -4 -15 16 11 14 10 14 -5 2 -10 -7 -16 -16
-14 -20 5 -8 -131 -7 -140 2 -4 3 -12 3 -18 -1 -6 -3 -96 -8 -201 -9 -104 -2
-194 -3 -200 -4 -5 0 -29 2 -52 4 -24 2 -43 0 -43 -4 0 -5 -6 -6 -13 -3 -34
13 -113 10 -130 -5 -15 -12 -18 -13 -15 -1 2 9 -8 14 -35 14 -20 1 -37 -3 -37
-7 0 -5 -5 -5 -12 -1 -9 6 -82 9 -90 4 -14 -8 -44 -6 -50 3 -6 9 -8 9 -8 0 0
-9 -7 -10 -24 -3 -13 5 -27 6 -30 3 -3 -4 -29 -6 -57 -6 -37 1 -48 -2 -42 -11
4 -6 1 -4 -8 6 -20 21 -34 12 -17 -11 10 -12 8 -12 -8 2 -11 9 -28 17 -37 17
-11 0 -15 -6 -11 -17 5 -17 5 -17 -6 0 -14 22 -31 22 -23 0 5 -12 0 -10 -16 6
-12 12 -27 19 -32 15 -8 -4 -7 -9 2 -15 7 -4 17 -5 23 -2 5 3 6 1 2 -5 -5 -9
-13 -9 -27 -2 -14 8 -19 7 -19 -2 -1 -9 -4 -8 -10 3 -7 13 -26 16 -97 15 -50
-1 -91 3 -96 9 -5 5 -6 1 -3 -10 5 -16 1 -21 -14 -22 -11 -1 -22 2 -25 8 -3 5
1 6 9 3 9 -3 16 -2 16 3 0 13 -49 10 -58 -3 -9 -12 -62 -14 -62 -2 0 5 -6 6
-12 1 -19 -12 -62 -11 -70 1 -5 7 -8 6 -8 -2 0 -10 -4 -10 -16 2 -8 9 -23 16
-32 15 -12 0 -11 -3 6 -9 29 -12 28 -16 -3 -16 -14 0 -25 5 -25 11 0 5 -5 3
-10 -5 -9 -13 -10 -13 -10 0 0 13 -1 13 -10 0 -6 -10 -10 -11 -10 -2 0 6 -5
12 -11 12 -5 0 -8 -3 -5 -8 2 -4 -39 -7 -92 -7 -74 0 -96 4 -94 14 1 7 -2 10
-8 6 -6 -3 -8 -11 -5 -16 4 -5 0 -9 -8 -9 -8 0 -19 10 -26 23 l-11 22 6 -22
c6 -25 -5 -30 -25 -10 -11 10 -13 10 -7 0 4 -7 2 -13 -3 -13 -6 0 -11 6 -12
13 0 10 -2 10 -6 0 -8 -21 -22 -15 -18 7 2 12 0 18 -6 15 -5 -4 -7 -10 -4 -15
3 -5 0 -12 -6 -16 -6 -3 -15 0 -20 7 -6 10 -9 11 -9 2 0 -7 -5 -13 -11 -13 -5
0 -8 4 -4 9 3 5 1 13 -5 16 -6 4 -9 1 -8 -7 2 -7 -4 -13 -12 -13 -8 0 -14 6
-12 13 1 8 -2 11 -8 7 -6 -3 -8 -11 -5 -16 4 -5 1 -9 -4 -9 -6 0 -11 6 -11 13
0 8 -4 7 -10 -3 -9 -13 -11 -13 -20 0 -6 10 -10 11 -10 3 0 -7 -5 -13 -11 -13
-5 0 -8 4 -4 9 3 5 0 13 -6 17 -7 4 -9 3 -5 -4 10 -17 -13 -25 -31 -10 -12 9
-15 9 -9 1 4 -7 2 -13 -3 -13 -6 0 -11 6 -11 13 0 7 -3 8 -8 2 -4 -6 -25 -11
-47 -12 -29 -2 -36 0 -25 7 9 6 10 10 3 10 -6 0 -14 -4 -18 -9 -10 -17 -44 -8
-42 11 1 15 9 17 44 15 24 -1 43 -6 43 -12 0 -5 5 -3 10 5 8 12 10 12 10 1 0
-8 3 -12 6 -9 3 4 1 16 -5 27 -10 17 -9 20 4 15 8 -4 15 -12 15 -18 0 -7 10
-12 23 -10 12 1 28 3 35 3 6 1 12 6 12 12 0 5 -5 7 -12 3 -7 -4 -8 -3 -4 5 6
8 12 9 20 2 7 -6 16 -8 19 -4 4 3 7 1 7 -5 0 -5 -6 -13 -12 -15 -7 -3 2 -4 21
-2 18 2 36 7 40 11 3 4 -2 5 -11 1 -9 -3 -18 0 -21 6 -3 8 6 12 23 12 18 0 26
-4 23 -12 -3 -7 0 -13 6 -13 6 0 11 7 11 16 0 8 4 13 10 9 5 -3 25 -6 44 -7
23 -1 37 -7 39 -17 3 -11 5 -10 6 5 0 11 7 21 15 21 8 0 12 -8 9 -21 -4 -20
-4 -20 9 1 10 17 17 19 31 12 9 -6 17 -6 17 -2 0 4 14 8 30 8 17 0 30 -3 30
-7 0 -5 -4 -8 -9 -8 -5 0 -11 -6 -14 -13 -3 -8 1 -14 9 -14 7 0 11 3 9 6 -8
14 23 36 53 37 23 1 32 -3 32 -15 1 -14 2 -14 11 2 6 9 15 15 20 11 6 -4 4
-12 -5 -23 -14 -15 -13 -17 7 -18 15 -2 18 0 8 6 -9 6 -10 11 -2 15 6 4 9 11
6 16 -3 4 6 7 19 6 13 0 22 -5 18 -10 -3 -5 1 -5 9 -1 19 12 49 14 49 3 0 -5
5 -6 11 -2 7 4 132 8 278 9 147 1 272 5 279 9 7 4 12 3 12 -2 0 -10 71 -9 88
2 7 4 12 2 12 -6 0 -9 3 -9 10 2 6 9 10 10 10 3 0 -12 30 -10 50 2 6 3 10 1
10 -6 0 -8 4 -8 15 1 8 7 15 8 15 4 0 -13 113 -11 122 1 5 6 8 5 8 -2 0 -7 6
-10 14 -7 8 3 12 13 10 22 -3 9 1 7 8 -6 13 -21 15 -21 31 -5z m112 13 c-3 -5
-12 -10 -18 -10 -7 0 -6 4 3 10 19 12 23 12 15 0z m309 1 c-7 -8 -54 -9 -49
-1 2 3 15 6 29 6 14 0 23 -2 20 -5z m151 0 c-9 -8 -36 -10 -30 -2 2 4 11 8 20
8 8 0 13 -3 10 -6z m-2526 -38 c-12 -15 -12 -16 3 -10 12 4 15 2 11 -9 -3 -8
-1 -14 5 -12 5 2 11 -1 11 -7 2 -17 -47 -15 -61 2 -11 14 -10 16 10 11 18 -5
21 -4 13 6 -7 9 -7 16 1 24 18 18 22 14 7 -5z m125 2 c-4 -9 0 -15 10 -15 10
0 13 6 9 18 -7 18 -5 17 17 -12 8 -11 10 -17 5 -14 -6 4 -17 2 -25 -3 -12 -7
-11 -8 5 -6 11 1 26 6 34 11 11 7 11 10 0 17 -10 6 -7 8 8 6 14 -1 19 -5 13
-12 -8 -10 -10 -16 -10 -34 0 -12 -82 -10 -99 3 -11 8 -13 8 -7 -1 4 -7 2 -13
-3 -13 -6 0 -11 6 -12 13 0 10 -2 10 -6 0 -2 -7 -9 -13 -14 -13 -6 0 -8 4 -4
9 3 5 1 12 -5 16 -5 3 -10 14 -10 23 0 14 2 14 9 3 14 -22 59 -23 71 0 13 23
22 26 14 4z m133 0 c0 -8 -4 -12 -9 -9 -5 3 -6 10 -3 15 9 13 12 11 12 -6z
m112 -8 c0 -9 -2 -8 -6 1 -2 6 -10 9 -15 6 -7 -4 -8 -2 -4 5 9 13 26 5 25 -12z
m-461 -11 c12 0 22 -3 22 -8 0 -5 7 -2 16 6 19 19 31 21 15 3 -8 -10 -7 -17 1
-25 15 -15 -31 -13 -51 2 -11 8 -13 8 -7 -1 4 -7 3 -13 -1 -13 -5 0 -15 6 -22
13 -11 10 -13 10 -7 0 4 -7 2 -13 -3 -13 -6 0 -11 6 -11 13 0 8 -4 7 -10 -3
-9 -13 -11 -13 -20 0 -6 10 -10 11 -10 3 0 -7 -10 -13 -23 -13 -13 0 -29 6
-36 13 -11 10 -13 10 -7 0 4 -7 2 -13 -3 -13 -6 0 -11 6 -11 13 0 8 -3 9 -8 1
-9 -14 -43 -14 -61 0 -11 8 -13 8 -7 -1 4 -7 3 -13 -1 -13 -5 0 -15 6 -22 13
-11 10 -13 10 -7 0 4 -7 2 -13 -3 -13 -6 0 -11 6 -11 13 0 9 -2 9 -8 0 -10
-16 -52 -12 -52 5 0 7 5 10 10 7 6 -3 10 -2 10 2 0 11 94 8 112 -3 10 -6 9 -3
-1 9 -13 16 -12 17 11 8 14 -5 38 -8 54 -6 17 2 33 -4 41 -14 12 -15 13 -15 7
0 -4 14 1 16 31 13 33 -3 36 -2 24 14 -13 16 -12 16 6 1 11 -8 30 -14 43 -13z
m386 16 c3 -5 -1 -9 -9 -9 -8 0 -15 4 -15 9 0 4 4 8 9 8 6 0 12 -4 15 -8z
m-764 -27 c0 -5 5 -3 10 5 8 12 10 11 10 -8 0 -16 -5 -22 -17 -20 -10 2 -21 8
-25 13 -5 6 -8 5 -8 -2 0 -7 -9 -13 -20 -13 -11 0 -20 2 -20 4 0 2 -2 10 -5
18 -4 10 5 13 35 13 22 0 40 -4 40 -10z m-195 -15 c-3 -5 -11 -10 -16 -10 -6
0 -7 5 -4 10 3 6 11 10 16 10 6 0 7 -4 4 -10z m1999 2 c3 -5 -1 -9 -9 -9 -8 0
-15 4 -15 9 0 4 4 8 9 8 6 0 12 -4 15 -8z m66 2 c0 -8 -19 -13 -24 -6 -3 5 1
9 9 9 8 0 15 -2 15 -3z m1664 -52 c2 -4 -4 -8 -14 -8 -10 0 -16 4 -14 8 3 4 9
8 14 8 5 0 11 -4 14 -8z m-3714 -12 c0 -5 -5 -10 -11 -10 -5 0 -7 5 -4 10 3 6
8 10 11 10 2 0 4 -4 4 -10z m710 -24 c-7 -7 -13 -7 -20 0 -6 6 -3 10 10 10 13
0 16 -4 10 -10z m70 4 c0 -5 -5 -10 -11 -10 -5 0 -7 5 -4 10 3 6 8 10 11 10 2
0 4 -4 4 -10z m35 0 c3 -5 1 -10 -4 -10 -6 0 -11 5 -11 10 0 6 2 10 4 10 3 0
8 -4 11 -10z m60 0 c3 -5 1 -10 -4 -10 -6 0 -11 5 -11 10 0 6 2 10 4 10 3 0 8
-4 11 -10z m130 0 c-3 -5 -12 -10 -18 -10 -7 0 -6 4 3 10 19 12 23 12 15 0z
m95 -2 c0 -3 -9 -6 -20 -5 -11 1 -20 5 -20 9 0 3 9 6 20 5 11 -1 20 -5 20 -9z
m260 8 c0 -3 -4 -8 -10 -11 -5 -3 -10 -1 -10 4 0 6 5 11 10 11 6 0 10 -2 10
-4z"/>
<path d="M3521 711 c-9 -6 -5 -10 13 -13 15 -3 29 0 33 6 3 6 3 8 -2 4 -4 -4
-13 -4 -19 2 -7 5 -18 5 -25 1z"/>
<path d="M3821 711 c-9 -6 -10 -11 -2 -15 6 -4 11 -1 11 6 0 9 3 9 10 -2 6 -9
10 -10 10 -3 0 17 -14 23 -29 14z"/>
<path d="M3350 699 c0 -5 5 -7 10 -4 6 3 10 8 10 11 0 2 -4 4 -10 4 -5 0 -10
-5 -10 -11z"/>
<path d="M3695 700 c3 -5 8 -10 11 -10 2 0 4 5 4 10 0 6 -5 10 -11 10 -5 0 -7
-4 -4 -10z"/>
<path d="M3980 700 c-9 -6 -10 -10 -3 -10 6 0 15 5 18 10 8 12 4 12 -15 0z"/>
<path d="M4290 685 c0 -8 4 -15 10 -15 5 0 7 7 4 15 -4 8 -8 15 -10 15 -2 0
-4 -7 -4 -15z"/>
<path d="M2037 672 c-15 -16 -15 -19 -2 -19 8 0 13 3 10 5 -3 3 0 11 6 19 17
20 5 16 -14 -5z"/>
<path d="M4228 683 c6 -2 18 -2 25 0 6 3 1 5 -13 5 -14 0 -19 -2 -12 -5z"/>
<path d="M1794 668 c10 -6 22 -6 26 -2 5 5 -3 10 -18 11 -22 1 -24 0 -8 -9z"/>
<path d="M2295 660 c3 -4 16 -10 30 -12 13 -3 22 -2 20 2 -3 4 -16 10 -30 12
-13 3 -22 2 -20 -2z"/>
<path d="M2410 659 c0 -6 -7 -8 -17 -4 -15 5 -16 4 -5 -6 10 -11 15 -10 29 4
11 11 13 17 5 17 -7 0 -12 -5 -12 -11z"/>
<path d="M2068 653 c7 -3 16 -2 19 1 4 3 -2 6 -13 5 -11 0 -14 -3 -6 -6z"/>
<path d="M1025 4539 c-3 -4 2 -6 10 -5 21 3 28 13 10 13 -9 0 -18 -4 -20 -8z"/>
<path d="M1070 4542 c0 -5 7 -9 15 -9 8 0 12 4 9 9 -3 4 -9 8 -15 8 -5 0 -9
-4 -9 -8z"/>
<path d="M3206 4482 c-3 -5 1 -9 9 -9 8 0 12 4 9 9 -3 4 -7 8 -9 8 -2 0 -6 -4
-9 -8z"/>
<path d="M3326 4482 c-3 -5 1 -9 9 -9 8 0 12 4 9 9 -3 4 -7 8 -9 8 -2 0 -6 -4
-9 -8z"/>
<path d="M4055 4480 c-3 -5 -1 -10 4 -10 6 0 11 5 11 10 0 6 -2 10 -4 10 -3 0
-8 -4 -11 -10z"/>
<path d="M4150 4478 c0 -4 9 -7 20 -5 29 5 33 13 5 13 -14 0 -25 -4 -25 -8z"/>
<path d="M596 1781 c-4 -6 -2 -11 5 -11 9 0 9 -3 0 -14 -9 -11 -9 -16 1 -22 7
-4 10 -4 6 1 -4 4 -4 13 2 19 5 7 5 18 1 25 -6 9 -11 10 -15 2z"/>
<path d="M2010 550 c0 -5 5 -10 11 -10 5 0 7 5 4 10 -3 6 -8 10 -11 10 -2 0
-4 -4 -4 -10z"/>
<path d="M2066 552 c-3 -5 1 -9 9 -9 8 0 15 4 15 9 0 4 -4 8 -9 8 -6 0 -12 -4
-15 -8z"/>
</g>
</svg>
